# xmcd
#
# Track frame offsets:
#	150
#	20160
#	38456
#	56656
#	75256
#	90676
#	109667
#	128027
#	147807
#	163663
#	185960
#	201563
#	219879
#
# Disc length: 3122 seconds
#
# Revision: 2
# Processed by: cddbd v1.5.2PL0 Copyright (c) Steve Scherf et al.
# Submitted via: EZCDAudioConverter 4.0.5.1
#
DISCID=b10c300d
DTITLE=Alabama - Southern Drawl
DYEAR=2015
DGENRE=Country
TTITLE0=Southern Drawl
TTITLE1=Wasn't Through Lovin' You Yet
TTITLE2=This Ain't Just A Song
TTITLE3=As Long As There's Love
TTITLE4=Back To The Country
TTITLE5=Hillbilly Wins The Lotto Money
TTITLE6=Come Find Me
TTITLE7=No Bad Days
TTITLE8=One On One
TTITLE9=American Farmer
TTITLE10=It's About Time
TTITLE11=Footstompin' Music
TTITLE12=I Wanna Be There
EXTD=
EXTT0=
EXTT1=
EXTT2=
EXTT3=
EXTT4=
EXTT5=
EXTT6=
EXTT7=
EXTT8=
EXTT9=
EXTT10=
EXTT11=
EXTT12=
PLAYORDER=
